<?xml version="1.0" standalone="no"?>
<!DOCTYPE svg PUBLIC "-//W3C//DTD SVG 20010904//EN"
 "http://www.w3.org/TR/2001/REC-SVG-20010904/DTD/svg10.dtd">
<svg version="1.0" xmlns="http://www.w3.org/2000/svg"
 width="512.000000pt" height="512.000000pt" viewBox="0 0 512.000000 512.000000"
 preserveAspectRatio="xMidYMid meet">

<g transform="translate(0.000000,512.000000) scale(0.100000,-0.100000)"
fill="#000000" stroke="none">
<path d="M412 4783 c-18 -9 -45 -32 -60 -51 l-27 -35 0 -378 c0 -366 1 -378
21 -405 39 -53 71 -69 134 -69 63 0 95 16 134 69 20 26 21 43 24 296 l3 269
269 3 c253 3 270 4 296 24 52 39 69 71 69 133 0 47 -5 64 -27 93 -51 67 -55
68 -450 68 -306 0 -357 -3 -386 -17z"/>
<path d="M3932 4783 c-18 -9 -45 -32 -60 -51 -22 -29 -27 -46 -27 -93 0 -62
17 -94 69 -133 26 -20 43 -21 296 -24 l269 -3 3 -269 c3 -253 4 -270 24 -296
39 -53 71 -69 134 -69 63 0 95 16 134 69 20 27 21 39 21 405 l0 378 -27 35
c-51 67 -55 68 -450 68 -306 0 -357 -3 -386 -17z"/>
<path d="M2122 4144 c-113 -30 -195 -101 -262 -226 l-42 -78 -216 -1 c-247 0
-309 -11 -406 -69 -111 -67 -203 -197 -226 -319 -6 -33 -10 -375 -10 -900 0
-728 2 -855 15 -906 45 -172 179 -305 352 -350 86 -22 2380 -22 2466 0 173 45
307 178 352 350 13 51 15 178 15 906 0 525 -4 867 -10 900 -23 122 -115 252
-226 319 -97 58 -159 69 -406 69 l-216 1 -42 78 c-68 127 -150 197 -266 227
-82 21 -792 21 -872 -1z m809 -314 c10 -6 44 -61 75 -123 56 -112 82 -149 119
-170 13 -8 119 -14 317 -17 280 -5 298 -6 324 -26 15 -11 37 -33 48 -48 21
-27 21 -34 21 -886 0 -852 0 -859 -21 -886 -11 -15 -33 -37 -48 -48 -27 -21
-31 -21 -1206 -21 -1175 0 -1179 0 -1206 21 -15 11 -37 33 -48 48 -21 27 -21
34 -21 886 0 852 0 859 21 886 11 15 33 37 48 48 26 20 44 21 324 26 198 3
304 9 317 17 37 21 63 58 119 170 30 61 64 116 73 122 25 14 717 15 744 1z"/>
<path d="M2451 3189 c-236 -46 -417 -202 -499 -431 -22 -63 -26 -89 -27 -193
0 -97 4 -133 22 -190 67 -212 245 -380 459 -435 324 -83 664 110 767 435 32
102 31 271 -2 373 -74 225 -255 389 -484 436 -82 17 -166 19 -236 5z m254
-348 c69 -34 111 -78 147 -151 31 -64 32 -196 2 -261 -89 -192 -333 -249 -496
-116 -35 28 -63 64 -83 102 -27 52 -30 68 -29 144 0 94 18 145 73 212 30 36
113 87 165 100 61 16 153 3 221 -30z"/>
<path d="M412 1264 c-18 -10 -45 -33 -60 -52 l-27 -35 0 -378 c0 -366 1 -378
21 -405 11 -15 33 -37 48 -48 27 -20 39 -21 406 -21 367 0 379 1 406 21 52 39
69 71 69 133 0 47 -5 64 -27 93 -50 65 -66 68 -352 68 l-256 0 0 256 c0 285
-3 303 -67 351 -43 33 -114 41 -161 17z"/>
<path d="M4572 1264 c-18 -10 -45 -33 -60 -52 l-27 -35 -3 -269 -3 -268 -255
0 c-286 0 -302 -3 -352 -68 -22 -29 -27 -46 -27 -93 0 -62 17 -94 69 -133 27
-20 39 -21 406 -21 367 0 379 1 406 21 15 11 37 33 48 48 20 26 21 42 24 392
3 406 3 410 -65 461 -43 33 -114 41 -161 17z"/>
</g>
</svg>
