<?xml version="1.0" standalone="no"?>
<!DOCTYPE svg PUBLIC "-//W3C//DTD SVG 20010904//EN"
 "http://www.w3.org/TR/2001/REC-SVG-20010904/DTD/svg10.dtd">
<svg version="1.0" xmlns="http://www.w3.org/2000/svg"
 width="512.000000pt" height="512.000000pt" viewBox="0 0 512.000000 512.000000"
 preserveAspectRatio="xMidYMid meet">

<g transform="translate(0.000000,512.000000) scale(0.100000,-0.100000)"
fill="#000000" stroke="none">
<path d="M2310 4804 c-14 -2 -59 -9 -100 -15 -169 -25 -401 -123 -545 -231
-265 -199 -444 -490 -499 -808 -20 -120 -21 -328 0 -445 32 -189 120 -389 238
-545 38 -50 257 -277 528 -548 402 -400 467 -462 493 -462 26 0 91 62 493 462
271 271 490 498 528 548 118 156 206 356 238 545 32 185 16 440 -40 615 -34
105 -124 282 -186 365 -190 257 -481 440 -790 500 -81 16 -309 28 -358 19z
m362 -183 c323 -73 602 -291 752 -589 89 -177 121 -331 113 -549 -5 -161 -21
-241 -77 -380 -77 -191 -124 -248 -612 -738 l-418 -420 -448 450 c-280 281
-463 472 -487 510 -89 136 -151 296 -175 447 -20 123 -8 350 25 468 120 436
486 756 937 820 91 13 289 3 390 -19z"/>
<path d="M2345 4338 c-77 -87 -223 -314 -291 -453 -112 -229 -156 -396 -156
-590 1 -197 52 -345 157 -451 65 -66 125 -100 216 -123 l74 -19 5 -65 c6 -78
23 -101 75 -101 54 0 76 28 82 106 l5 64 53 11 c181 38 325 185 371 379 22 92
22 283 -1 388 -50 234 -190 531 -359 761 -87 119 -114 145 -152 145 -27 0 -41
-10 -79 -52z m159 -273 c121 -182 218 -390 263 -564 33 -131 36 -306 4 -401
-30 -92 -82 -157 -160 -197 -98 -51 -101 -49 -101 54 l0 87 70 102 c70 102 81
135 60 174 -16 29 -68 43 -101 26 l-28 -14 -3 183 c-3 178 -4 184 -27 209 -31
33 -76 34 -108 4 -22 -20 -23 -29 -23 -146 0 -114 -1 -124 -17 -117 -41 18
-69 16 -96 -5 -46 -36 -38 -73 43 -196 l70 -106 0 -144 c0 -143 0 -144 -22
-144 -69 1 -182 90 -222 174 -93 197 -56 479 102 791 66 130 211 350 222 338
4 -4 38 -53 74 -108z"/>
<path d="M3665 2685 c-30 -29 -33 -73 -6 -101 10 -12 231 -135 490 -274 259
-140 470 -256 469 -260 -2 -3 -63 -63 -136 -134 -113 -109 -135 -126 -145
-113 -21 27 -912 507 -941 507 -60 0 -98 -82 -58 -126 11 -11 215 -127 455
-258 241 -131 437 -241 437 -244 0 -11 -248 -242 -259 -242 -6 0 -79 34 -161
75 -82 41 -159 75 -171 75 -16 0 -1016 -521 -1330 -692 l-35 -19 -197 107
c-108 59 -197 110 -197 114 0 3 283 155 629 339 551 292 631 337 642 363 23
55 5 77 -106 135 -113 59 -145 64 -180 28 -34 -33 -33 -75 4 -111 l29 -29
-599 -317 -599 -316 -587 320 c-324 176 -591 323 -596 327 -6 6 72 66 359 278
l71 52 449 -245 c247 -135 459 -247 470 -250 66 -17 120 73 77 124 -10 12
-204 123 -432 247 -228 124 -416 227 -418 229 -2 2 56 49 130 104 158 117 177
136 177 174 0 38 -40 78 -78 78 -23 0 -140 -83 -529 -374 -275 -205 -503 -381
-506 -391 -12 -30 -7 -61 12 -81 19 -21 2636 -1453 2682 -1468 18 -5 34 -4 51
5 20 11 1573 1486 1765 1676 48 47 56 86 26 121 -27 31 -1076 592 -1107 592
-15 0 -38 -11 -51 -25z m83 -1318 l103 -53 -432 -412 -432 -412 -61 33 c-34
19 -155 85 -269 147 -114 62 -204 116 -200 121 9 9 1176 628 1183 628 3 0 51
-24 108 -52z"/>
</g>
</svg>
